<svg xmlns="http://www.w3.org/2000/svg" xmlns:xlink="http://www.w3.org/1999/xlink" viewBox="0 0 1641.6 1026.17"><defs><style>.cls-1{fill:none;}.cls-2{fill:#fff;}.cls-3{fill:#b7d5e5;}.cls-4{fill:#cce4eb;}.cls-5{fill:#f2f2f2;}.cls-6{fill:#86a4b6;}.cls-7{fill:#42319e;}.cls-8{fill:#e6eff5;}.cls-9{fill:#ff3f54;}.cls-10{fill:#ffc828;}.cls-11{clip-path:url(#clip-path);}.cls-12{fill:#ffb100;}.cls-13{fill:#eecabf;}.cls-14{fill:#291a6d;}.cls-15{fill:#00cf76;}.cls-16{fill:#eac3b8;}.cls-17{fill:#bedae0;}.cls-18{fill:#f0ccc1;}.cls-19{fill:#ebc1b6;}.cls-20{fill:#f32e49;}.cls-21{fill:#edb9a7;}.cls-22{fill:#eec7b9;}.cls-23{fill:#2c2381;}.cls-24{fill:#00c162;}</style><clipPath id="clip-path"><rect class="cls-1" x="1277.96" y="376.65" width="346.82" height="48.34" transform="translate(2689.69 1257.36) rotate(-160.77)"/></clipPath></defs><g id="Layer_2" data-name="Layer 2"><g id="layer_1-2" data-name="layer 1"><rect class="cls-2" y="0.17" width="1641.6" height="1026"/><path class="cls-3" d="M1206.47,235.9c-47.93,159.89-348.88,417-348.88,417s-159.1,123-132.26,373.28H1641.6V0H1196.88S1254.39,76,1206.47,235.9Z"/><path class="cls-4" d="M974.57,428.92A47,47,0,0,0,980.82,444l-7.59,9,13.16,13.15,9-7.58a46.94,46.94,0,0,0,15.07,6.24l1,11.73h18.6l1-11.73a46.94,46.94,0,0,0,15.07-6.24l9,7.58L1068.31,453l-7.59-9a47,47,0,0,0,6.25-15.07l11.72-1V409.31l-11.72-1a47,47,0,0,0-6.25-15.07l7.59-9-13.16-13.15-9,7.58a46.94,46.94,0,0,0-15.07-6.24l-1-11.73h-18.6l-1,11.73a46.94,46.94,0,0,0-15.07,6.24l-9-7.58-13.16,13.15,7.59,9a47,47,0,0,0-6.25,15.07l-11.73,1v18.61ZM996,418.62a24.76,24.76,0,1,1,24.76,24.75A24.76,24.76,0,0,1,996,418.62Z"/><rect class="cls-5" x="1021.45" y="329.75" width="451.7" height="385.94" rx="25.74"/><path class="cls-6" d="M1473.15,355.49v34.2h-451.7v-34.2a25.74,25.74,0,0,1,25.74-25.74h400.22A25.74,25.74,0,0,1,1473.15,355.49Z"/><path class="cls-2" d="M1067.16,359.72a7.14,7.14,0,1,0-7.14,7.14A7.14,7.14,0,0,0,1067.16,359.72Z"/><path class="cls-2" d="M1100.19,359.72a7.14,7.14,0,1,0-7.14,7.14A7.14,7.14,0,0,0,1100.19,359.72Z"/><path class="cls-2" d="M1133.22,359.72a7.14,7.14,0,1,0-7.14,7.14A7.14,7.14,0,0,0,1133.22,359.72Z"/><circle class="cls-2" cx="1426.78" cy="359.72" r="20.31" transform="translate(-44.48 337.43) rotate(-13.28)"/><path class="cls-7" d="M1435.71,370.18a1.53,1.53,0,0,1-1.09-.45L1417,352.07a1.53,1.53,0,0,1,2.17-2.17l17.66,17.66a1.54,1.54,0,0,1-1.08,2.62Z"/><path class="cls-7" d="M1418,370.18a1.54,1.54,0,0,1-1.08-2.62l17.66-17.66a1.53,1.53,0,0,1,2.17,2.17l-17.66,17.66A1.53,1.53,0,0,1,1418,370.18Z"/><rect class="cls-2" x="1060.02" y="534.29" width="371.23" height="33.1" rx="3.44"/><path class="cls-8" d="M1076.41,545.09h0c0-2.11,2-3.82,4.41-3.82h55.58c2.43,0,4.41,1.71,4.41,3.82h0c0,2.1-2,3.81-4.41,3.81h-55.58C1078.39,548.9,1076.41,547.19,1076.41,545.09Z"/><path class="cls-8" d="M1076.41,556.6h0c0-2.11,2-3.82,4.41-3.82h37.26c2.44,0,4.42,1.71,4.42,3.82h0c0,2.11-2,3.81-4.42,3.81h-37.26C1078.39,560.41,1076.41,558.71,1076.41,556.6Z"/><path class="cls-8" d="M1147.58,545.09h0c0-2.11,2-3.82,4.41-3.82h37.27c2.43,0,4.41,1.71,4.41,3.82h0c0,2.1-2,3.81-4.41,3.81H1152C1149.56,548.9,1147.58,547.19,1147.58,545.09Z"/><path class="cls-8" d="M1129.79,556.6h0a4.14,4.14,0,0,1,4.41-3.82H1155a4.14,4.14,0,0,1,4.41,3.82h0c0,2.11-2,3.81-4.41,3.81H1134.2C1131.76,560.41,1129.79,558.71,1129.79,556.6Z"/><path class="cls-8" d="M1169.44,556.6h0a4.14,4.14,0,0,1,4.41-3.82h20.76a4.14,4.14,0,0,1,4.41,3.82h0c0,2.11-2,3.81-4.41,3.81h-20.76C1171.41,560.41,1169.44,558.71,1169.44,556.6Z"/><path class="cls-8" d="M1220.31,545.09h0c0-2.11,2-3.82,4.41-3.82h55.58a4.14,4.14,0,0,1,4.41,3.82h0c0,2.1-2,3.81-4.41,3.81h-55.58C1222.29,548.9,1220.31,547.19,1220.31,545.09Z"/><path class="cls-8" d="M1309.15,556.6h0a4.14,4.14,0,0,1,4.41-3.82h55.57a4.14,4.14,0,0,1,4.41,3.82h0c0,2.11-2,3.81-4.41,3.81h-55.57C1311.12,560.41,1309.15,558.71,1309.15,556.6Z"/><path class="cls-8" d="M1220.31,556.6h0c0-2.11,2-3.82,4.41-3.82H1262c2.43,0,4.41,1.71,4.41,3.82h0c0,2.11-2,3.81-4.41,3.81h-37.27C1222.29,560.41,1220.31,558.71,1220.31,556.6Z"/><path class="cls-8" d="M1291.49,545.09h0a4.14,4.14,0,0,1,4.41-3.82h37.26a4.14,4.14,0,0,1,4.41,3.82h0c0,2.1-2,3.81-4.41,3.81H1295.9C1293.46,548.9,1291.49,547.19,1291.49,545.09Z"/><path class="cls-8" d="M1273.69,556.6h0c0-2.11,2-3.82,4.41-3.82h20.77c2.43,0,4.41,1.71,4.41,3.82h0c0,2.11-2,3.81-4.41,3.81H1278.1C1275.67,560.41,1273.69,558.71,1273.69,556.6Z"/><path class="cls-8" d="M1344.34,545.09h0c0-2.11,2-3.82,4.42-3.82h20.76c2.43,0,4.41,1.71,4.41,3.82h0c0,2.1-2,3.81-4.41,3.81h-20.76C1346.32,548.9,1344.34,547.19,1344.34,545.09Z"/><rect class="cls-2" x="1060.02" y="421.92" width="371.23" height="100.8" rx="3.44"/><path class="cls-8" d="M1150.65,450.45h0a4.47,4.47,0,0,1,4.46-4.47h56.31a4.47,4.47,0,0,1,4.47,4.47h0a4.47,4.47,0,0,1-4.47,4.46h-56.31A4.46,4.46,0,0,1,1150.65,450.45Z"/><path class="cls-8" d="M1222,450.45h0a4.47,4.47,0,0,1,4.47-4.47h56.31a4.47,4.47,0,0,1,4.47,4.47h0a4.47,4.47,0,0,1-4.47,4.46h-56.31A4.47,4.47,0,0,1,1222,450.45Z"/><path class="cls-8" d="M1150.65,466.92h0a4.47,4.47,0,0,1,4.46-4.47h37.76a4.47,4.47,0,0,1,4.47,4.47h0a4.47,4.47,0,0,1-4.47,4.47h-37.76A4.47,4.47,0,0,1,1150.65,466.92Z"/><path class="cls-8" d="M1204.73,466.67h0a4.47,4.47,0,0,1,4.47-4.47h21a4.47,4.47,0,0,1,4.47,4.47h0a4.47,4.47,0,0,1-4.47,4.47h-21A4.47,4.47,0,0,1,1204.73,466.67Z"/><path class="cls-8" d="M1149.89,484.18h0a4.47,4.47,0,0,1,4.47-4.46h45.54a4.47,4.47,0,0,1,4.47,4.46h0a4.47,4.47,0,0,1-4.47,4.47h-45.54A4.47,4.47,0,0,1,1149.89,484.18Z"/><path class="cls-8" d="M1149.89,500.66h0a4.47,4.47,0,0,1,4.47-4.47h37.76a4.47,4.47,0,0,1,4.46,4.47h0a4.47,4.47,0,0,1-4.46,4.47h-37.76A4.47,4.47,0,0,1,1149.89,500.66Z"/><path class="cls-8" d="M1210,484.18h0a4.47,4.47,0,0,1,4.47-4.46h37.75a4.47,4.47,0,0,1,4.47,4.46h0a4.47,4.47,0,0,1-4.47,4.47H1214.5A4.47,4.47,0,0,1,1210,484.18Z"/><path class="cls-9" d="M1136.64,472.91a28.34,28.34,0,1,0-28.34,28.34A28.34,28.34,0,0,0,1136.64,472.91Z"/><path class="cls-2" d="M1115.37,463.67a7.07,7.07,0,1,0-7.07,7.07A7.07,7.07,0,0,0,1115.37,463.67Z"/><path class="cls-2" d="M1121.85,489.23a14.51,14.51,0,0,0,.16-1.63,13.71,13.71,0,0,0-27.42,0,14.51,14.51,0,0,0,.16,1.63Z"/><rect class="cls-4" x="1329.43" y="449.09" width="67.6" height="49.61" rx="5.05"/><path class="cls-8" d="M1397,476.52v20.33a1.85,1.85,0,0,1-1.85,1.85h-63.91a1.85,1.85,0,0,1-1.85-1.85v-3.72l14.83-16.51a1.86,1.86,0,0,1,2.7-.05l11.1,11.49a1.85,1.85,0,0,0,2.69,0l22.84-24.9a1.85,1.85,0,0,1,2.8.1Z"/><path class="cls-8" d="M1351.43,461.55a6.77,6.77,0,1,0-6.77,6.77A6.77,6.77,0,0,0,1351.43,461.55Z"/><path class="cls-2" d="M1432.56,590v83.22a11.07,11.07,0,0,1-11.07,11.08H1285.86a11.08,11.08,0,0,1-11.08-11.08V590A11.1,11.1,0,0,1,1285.86,579h135.63A11.09,11.09,0,0,1,1432.56,590Z"/><path class="cls-2" d="M1590.5,732.15h9.78l-33.92-140.76H1570a7.33,7.33,0,0,0,0-14.66H1465a7.33,7.33,0,1,0,0,14.66h8.41l-33.92,140.76h9.77l7.63-31.68h126Zm-33.91-140.76L1567,634.53h-94.24l10.4-43.14Zm-97,97.69L1470,645.93h99.74l10.4,43.15Z"/><path class="cls-10" d="M1282.54,367.52l321.72,112.24a3,3,0,0,0,3.87-1.87l13.92-39.9a3,3,0,0,0-1.87-3.87L1298.47,321.88a3,3,0,0,0-3.88,1.87l-13.92,39.9A3,3,0,0,0,1282.54,367.52Z"/><g class="cls-11"><rect class="cls-12" x="1604.25" y="424.06" width="4.63" height="34.12" transform="translate(2978.12 1386.89) rotate(-160.76)"/><rect class="cls-12" x="1596.23" y="420.84" width="4.63" height="20.01" transform="translate(2966.18 1363.9) rotate(-160.78)"/><rect class="cls-12" x="1585.8" y="417.2" width="4.63" height="20.01" transform="translate(2946.82 1353.77) rotate(-160.76)"/><rect class="cls-12" x="1573.99" y="413.5" width="4.63" height="34.12" transform="translate(2923.05 1355.97) rotate(-160.78)"/><rect class="cls-12" x="1565.97" y="410.29" width="4.63" height="20.01" transform="translate(2910.94 1333.23) rotate(-160.79)"/><rect class="cls-12" x="1555.53" y="406.64" width="4.63" height="20.01" transform="translate(2891.46 1323.27) rotate(-160.76)"/><rect class="cls-12" x="1543.73" y="402.94" width="4.63" height="34.12" transform="translate(2867.32 1326.02) rotate(-160.76)"/><rect class="cls-12" x="1535.71" y="399.73" width="4.64" height="20.01" transform="translate(2855.24 1303.24) rotate(-160.77)"/><rect class="cls-12" x="1525.27" y="396.09" width="4.63" height="20.01" transform="translate(2836.53 1292.15) rotate(-160.79)"/><rect class="cls-12" x="1513.46" y="392.38" width="4.63" height="34.12" transform="translate(2811.95 1295.54) rotate(-160.76)"/><rect class="cls-12" x="1505.45" y="389.17" width="4.63" height="20.01" transform="translate(2800.25 1272.2) rotate(-160.79)"/><rect class="cls-12" x="1495.01" y="385.53" width="4.63" height="20.01" transform="translate(2780.66 1262.41) rotate(-160.76)"/><rect class="cls-12" x="1483.2" y="381.83" width="4.63" height="34.12" transform="translate(2756.93 1264.56) rotate(-160.78)"/><rect class="cls-12" x="1475.19" y="378.61" width="4.63" height="20.01" transform="translate(2744.76 1241.9) rotate(-160.78)"/><rect class="cls-12" x="1464.75" y="374.97" width="4.63" height="20.01" transform="translate(2725.19 1232.08) rotate(-160.75)"/><rect class="cls-12" x="1452.94" y="371.27" width="4.63" height="34.12" transform="translate(2701.44 1234.25) rotate(-160.77)"/><rect class="cls-12" x="1444.92" y="368.05" width="4.63" height="20.01" transform="translate(2689.04 1211.93) rotate(-160.76)"/><rect class="cls-12" x="1434.48" y="364.41" width="4.63" height="20.01" transform="translate(2669.83 1201.59) rotate(-160.75)"/><rect class="cls-12" x="1422.68" y="360.71" width="4.63" height="34.12" transform="translate(2645.87 1204.07) rotate(-160.76)"/><rect class="cls-12" x="1414.66" y="357.5" width="4.63" height="20.01" transform="translate(2633.55 1181.64) rotate(-160.75)"/><rect class="cls-12" x="1404.22" y="353.85" width="4.63" height="20.01" transform="translate(2614.45 1171.12) rotate(-160.75)"/><rect class="cls-12" x="1392.41" y="350.15" width="4.63" height="34.12" transform="translate(2590.96 1172.92) rotate(-160.79)"/><rect class="cls-12" x="1384.4" y="346.94" width="4.63" height="20.01" transform="translate(2578.53 1150.64) rotate(-160.77)"/><rect class="cls-12" x="1373.96" y="343.3" width="4.63" height="20.01" transform="translate(2559.21 1140.46) rotate(-160.76)"/><rect class="cls-12" x="1362.15" y="339.59" width="4.63" height="34.12" transform="translate(2535.62 1142.38) rotate(-160.79)"/><rect class="cls-12" x="1354.13" y="336.38" width="4.63" height="20.01" transform="translate(2522.87 1120.6) rotate(-160.75)"/><rect class="cls-12" x="1343.7" y="332.74" width="4.63" height="20.01" transform="translate(2503.86 1109.96) rotate(-160.76)"/><rect class="cls-12" x="1331.89" y="329.04" width="4.63" height="34.12" transform="translate(2479.94 1112.37) rotate(-160.77)"/><rect class="cls-12" x="1323.87" y="325.82" width="4.63" height="20.01" transform="translate(2467.62 1089.94) rotate(-160.76)"/><rect class="cls-12" x="1313.43" y="322.18" width="4.63" height="20.01" transform="translate(2448.95 1078.78) rotate(-160.79)"/><rect class="cls-12" x="1301.63" y="318.48" width="4.63" height="34.12" transform="translate(2424.59 1081.86) rotate(-160.77)"/></g><path class="cls-13" d="M1471.07,404.42c-4.89-3.42-26.75-23.59-26.75-23.59s1.4-6.33.58-8.2a9.2,9.2,0,0,0-2.21-3.45s-4.11-3-5.2-3.14-.68,2-.27,2.8a37.57,37.57,0,0,0,3.78,4,1.3,1.3,0,0,1,.21.83c0,.19-.27.12-.62-.15-1.3-1-4.36-4.46-6.43-6.45-2.63-2.52-5.18-4.25-5.83-4.28a.91.91,0,0,0-1,1.29c-.25,0-2.95,0-2.59,1.61,0,0-.2.05.51,1.34a2.83,2.83,0,0,0-.15,3.47s3.53,7.22,3.53,7.24c1.34,1.87,4.09,6.44,9.73,7.32,0,0,19.46,28.64,24.82,30.92s25.85,11.95,25.85,11.95l1.81-15.21S1476,407.84,1471.07,404.42Z"/><path class="cls-14" d="M1471.37,690.32c1.16-2.65,16.5-4.23,21.84-4.38,6-.17.7-3.76,5.54-3.12l4.86.67a16.76,16.76,0,0,1,1.71,7.83c0,.3,0,.6,0,.93-.21,3.24-10.24,2.77-19.58,1.83-5.81-.59-11.5-.11-14-2.7A.92.92,0,0,1,1471.37,690.32Z"/><path class="cls-13" d="M1505.54,671.57l-.78,14.72s-13.07,1.94-10.73-.4l-.69-13.7Z"/><path class="cls-14" d="M1520.14,686.18c1.2-2.56,15.49-2.95,20.44-2.69,5.58.3.82-3.68,5.28-2.67l4.47,1a18.1,18.1,0,0,1,1.21,7.92c0,.31,0,.6-.07.93-.35,3.21-9.62,2-18.23.32-5.35-1-10.64-1-12.87-3.76A1,1,0,0,1,1520.14,686.18Z"/><path class="cls-13" d="M1552.83,669.73l-1.61,14.65s-12.46,1.44-11.1-.91l.5-13.82Z"/><path class="cls-15" d="M1497.53,504.36s38.22,12.18,67.79,6.25c0,0,2.84,40.53-10.47,167.27l-15.53-.41s-4.42-26-6.85-130.74l-3.21-.27s-12.17,88.94-20.34,131.42l-17.62-.7S1490.86,542.5,1497.53,504.36Z"/><path class="cls-13" d="M1576.07,433.93s5.44,21.89,10.85,18.84c4-2.25,11.08-22.65,11.08-22.65l5.51,1.14s-2.83,38.06-14.88,42.93c-4.37,1.77-21.11-16.92-21.11-16.92l-7.71-18.21Z"/><path class="cls-5" d="M1476.92,428.67c.68-10.27,4.47-23,4.47-23,16,3.64,32.72-2.54,51.21-4.25,4.11-.38,19.85,0,29.09,5.37,10.31,6,18.48,24.07,20.2,29.89a112.07,112.07,0,0,1-13.4,2.18c1.84,26.77,2,76.56,2,76.56-32.17,3.08-76.67-8.18-76.67-8.18.93-9.34,4.41-41.51,4.93-77.41A76.88,76.88,0,0,1,1476.92,428.67Z"/><path class="cls-13" d="M1516.44,361.7s-1.89,6-2.4,8.72-3.31,3.26-3.59,4.11,1.37,2.74,1.37,2.74-3.6,7.87-1.37,10.44,9.92,2.56,9.92,2.56v13.35s9.76,5.31,19.68-1.19V389.59s7-15.75.69-25.16S1516.44,361.7,1516.44,361.7Z"/><path class="cls-14" d="M1510,356.25c-1.1-4.29.65-6.86,5-6,8.56,1.77,13.63-5.53,26.12.46a22.59,22.59,0,0,1,6.34,4.56,25.07,25.07,0,0,0-.23-2.95,8.92,8.92,0,0,1,1.69,4.49c1.39.27,4.76,1.07,5.3,2.56a8.43,8.43,0,0,0-3.88-.54c5.47,8.25,5.94,20-3.73,29.36-5.75,5.55-14.22.74-17-4.48,0,0,5.28.48,5.68-3.25.31-2.89-2-4.92-4-3.57-3.11,2.06-2.73,2.5-3.92,2.33a26.2,26.2,0,0,0,.41-9.51s-13.52-2.14-16.52-9a15.43,15.43,0,0,0,2.91,1.46A9.32,9.32,0,0,1,1510,356.25Z"/><path class="cls-13" d="M1597.13,432.56a16.17,16.17,0,0,1-4.63-2.64c-1.65-1.48-2.72-7.54-.09-5.06,3.77,3.57,3.22.72,3.83-.43.49-.92,1.53-2.44,3.39-.58,0,0,2-2.15,3.17.39,0,0,3.53-.13,3.41,1.43,0,0,2.59.49,2.1,2.22s-5,5.94-5,5.94Z"/><path class="cls-16" d="M968.45,442.81s.43-1.76-.05-2.18-2.65-.37-2.65-.37c.29-.42-.72-2.36-1.84-1.75s-6.27,5.87-9.5,8.39a22.05,22.05,0,0,1-6.3,3.11,1.15,1.15,0,0,1-1.51-1.21,4.64,4.64,0,0,1,.73-2.38c1-1,2.25-5.18.51-4.34A19.82,19.82,0,0,0,944,446a7.45,7.45,0,0,0-.74,8.42l.79,1.4S928.2,483,921.56,487.93s-31,13-31,13-8,16,.89,14.95S925.83,500,930.72,495.6s19.47-34.94,19.47-34.94,8.63-3,9.86-3.38,6-6.21,7.67-7.87a5.32,5.32,0,0,0,1.58-3.76C970,444.45,968.45,442.81,968.45,442.81Z"/><path class="cls-17" d="M894.05,497.66l23.65-10s-.34,5.68,1.25,9.55S894.05,497.66,894.05,497.66Z"/><polygon class="cls-4" points="974.56 408.76 972.77 408.04 1009.45 316.9 1024.07 316.9 1055.14 408.09 1053.32 408.71 1022.69 318.82 1010.74 318.82 974.56 408.76"/><path class="cls-9" d="M966.43,451.46h95.05a21.88,21.88,0,0,0,21.88-21.88h0a21.88,21.88,0,0,0-21.88-21.88H966.43a21.89,21.89,0,0,0-21.88,21.88h0A21.89,21.89,0,0,0,966.43,451.46Z"/><path class="cls-2" d="M967.7,422h6.57a18.53,18.53,0,0,1,2.9.17,4.24,4.24,0,0,1,1.72.67,4.31,4.31,0,0,1,1.26,1.38,3.77,3.77,0,0,1,.5,1.92,3.83,3.83,0,0,1-.62,2.11,3.79,3.79,0,0,1-1.69,1.45,4.34,4.34,0,0,1,2.31,1.49,3.92,3.92,0,0,1,.81,2.47,5,5,0,0,1-.52,2.18,4.39,4.39,0,0,1-1.43,1.69,4.53,4.53,0,0,1-2.22.78c-.55.06-1.89.1-4,.11H967.7Zm3.32,2.73v3.8h2.17c1.29,0,2.1,0,2.41-.05a2.25,2.25,0,0,0,1.34-.59,1.75,1.75,0,0,0,.48-1.28,1.85,1.85,0,0,0-.41-1.24,1.94,1.94,0,0,0-1.25-.58c-.33,0-1.28-.06-2.84-.06Zm0,6.54v4.39h3.07a16.11,16.11,0,0,0,2.27-.1,2,2,0,0,0,1.67-2.05,2.15,2.15,0,0,0-.36-1.26,2,2,0,0,0-1-.75,11.18,11.18,0,0,0-2.94-.23Z"/><path class="cls-2" d="M984.8,422h3.31v8.9a18.37,18.37,0,0,0,.13,2.74,2.68,2.68,0,0,0,1,1.62,3.54,3.54,0,0,0,2.19.61,3.32,3.32,0,0,0,2.13-.58,2.21,2.21,0,0,0,.86-1.41,18,18,0,0,0,.15-2.79V422h3.31v8.63a23.3,23.3,0,0,1-.26,4.18,4.77,4.77,0,0,1-1,2.06,5,5,0,0,1-1.94,1.33,8.23,8.23,0,0,1-3.16.5,9.09,9.09,0,0,1-3.56-.54,5.1,5.1,0,0,1-1.93-1.41,4.58,4.58,0,0,1-.93-1.82,20.49,20.49,0,0,1-.32-4.17Z"/><path class="cls-2" d="M1005.65,438.46V424.82h-4.87V422h13.05v2.78H1009v13.64Z"/><path class="cls-2" d="M1020.92,438.46V424.82h-4.87V422h13v2.78h-4.86v13.64Z"/><path class="cls-2" d="M1030.92,430.35a10.47,10.47,0,0,1,.75-4.21,8.15,8.15,0,0,1,1.53-2.25,6.58,6.58,0,0,1,2.12-1.48,9.12,9.12,0,0,1,3.54-.65,7.71,7.71,0,0,1,5.81,2.25,10.07,10.07,0,0,1,0,12.49,7.64,7.64,0,0,1-5.78,2.24,7.75,7.75,0,0,1-5.83-2.23A8.49,8.49,0,0,1,1030.92,430.35Zm3.42-.11a6.15,6.15,0,0,0,1.29,4.23,4.42,4.42,0,0,0,6.52,0,6.25,6.25,0,0,0,1.27-4.28,6.17,6.17,0,0,0-1.23-4.21,4.2,4.2,0,0,0-3.29-1.39,4.25,4.25,0,0,0-3.31,1.4A6.24,6.24,0,0,0,1034.34,430.24Z"/><path class="cls-2" d="M1050.29,438.46V422h3.23l6.72,11V422h3.08v16.42H1060l-6.62-10.7v10.7Z"/><path class="cls-14" d="M809.48,755.59s-3.7.08-5.65,2.63,6.12,21.35,10.47,22.46,13.34.84,14.17,0-5.84-5.46-7.32-6.66-3.79-15.8-3.79-15.8Z"/><path class="cls-18" d="M822.36,747.34l-5,10.88s2.22,12.46.92,13.57-8.8-16.2-8.8-16.2l5.93-14.27Z"/><path class="cls-14" d="M872,770.59s-1.84,6.3-.69,7.41,24.12,5.37,31.07,4.26-22.51-12.6-22.51-12.6Z"/><path class="cls-18" d="M882.56,756.05c0,.28-2.69,13.61-2.69,13.61s9.64,3.61,10.47,5S874,773.37,872,770.59a59.78,59.78,0,0,1,.84-15.19Z"/><path class="cls-18" d="M888.36,451.92s4.43,3.26,6.74,5.21,4.86,2.54,4.93,3.43-1.68,2.81-1.68,2.81,3.36,11.82.7,16.27-12.33,6.6-17.86,5.29-12.6-22.44-12.6-22.44S881.76,448.33,888.36,451.92Z"/><path class="cls-18" d="M892.61,481.12s2.72,8.65,6.67,12.23-8,6.17-8,6.17L879.52,485Z"/><path class="cls-14" d="M912.41,582.05c-3.21-5.44-52.54-4.91-52.54-4.91l-4.51-.81a171.71,171.71,0,0,0-17.62,57.27c-2.47,20.43-2.82,60.86-5.54,64.81s-17.28,38-19.51,44.21a26.53,26.53,0,0,0,10.87,6.67s22.48-32.36,27.66-43.22S871,633.7,871,633.7l4.94.74s-2.72,70.14-3,78.29-2,43.72-2,43.72,6.42,3.21,12.85,1c0,0,24.16-94.14,26.38-106S915.62,587.48,912.41,582.05Z"/><path class="cls-18" d="M983.05,442.81s.43-1.76,0-2.18-2.65-.37-2.65-.37c.29-.42-.72-2.36-1.84-1.75s-6.28,5.87-9.5,8.39a22.18,22.18,0,0,1-6.3,3.11,1.15,1.15,0,0,1-1.51-1.21,4.64,4.64,0,0,1,.73-2.38c1-1,2.25-5.18.51-4.34A19.82,19.82,0,0,0,958.6,446a7.45,7.45,0,0,0-.74,8.42l.79,1.4S942.79,483,936.16,487.93s-31,13-31,13-8,16,.89,14.95S940.43,500,945.32,495.6s19.47-34.94,19.47-34.94,8.63-3,9.85-3.38,6-6.21,7.68-7.87a5.32,5.32,0,0,0,1.58-3.76C984.62,444.45,983.05,442.81,983.05,442.81Z"/><path class="cls-4" d="M890.58,495.2c11.06-1.2,17.87.1,29.85-3,0,0,4.26,15.41,12.22,20.22,0,0-12.22,3.56-17.6,5.41,0,0,9.56,14.9,6.13,22.5s-8.1,20.08-6.13,30.7a78.06,78.06,0,0,1,1.09,19.68s-51.33-1.48-67.63-9.14c0,0,14.07-33.59,15.56-51.86S881.29,496.2,890.58,495.2Z"/><path class="cls-14" d="M845.88,467.68c6.38-5.81,10.62-9.31,11.21-14.5,1-8.48,9.78-11.17,16.29-12.17,5.08-.78,12.67-8.94,19.62-4.52,2.57,1.64,3.36,5.14.32,11.29a10.45,10.45,0,0,1-3.32,4,10.21,10.21,0,0,0-3.61,4.28,12.72,12.72,0,0,1-2.29,3.55c-4.37,4.72-3.85,9.68-.41,12s2,8.93.64,12.27c-2.58,6.4,10.15,9.43,6.59,15.88s-9.79,10.05-9.14,19.93c1,14.83-13.8,22.54-25.25,24.94-13.72,2.87-33.35-8.14-30-26.92,4.1-23,18.23-26.35,16.52-31.14S839.5,473.49,845.88,467.68Z"/><path class="cls-14" d="M985.37,319.14a2.13,2.13,0,0,1-2.13-2.14V286.11a2.13,2.13,0,0,1,4.26,0V317A2.13,2.13,0,0,1,985.37,319.14Z"/><path class="cls-14" d="M1048,319.14a2.14,2.14,0,0,1-2.13-2.14V286.11a2.14,2.14,0,0,1,4.27,0V317A2.14,2.14,0,0,1,1048,319.14Z"/><rect class="cls-10" x="1014.46" y="164.9" width="11.4" height="36.46"/><path class="cls-12" d="M1020.16,187.64h0a12.66,12.66,0,0,0-12.67,12.66v3.85h25.33V200.3A12.66,12.66,0,0,0,1020.16,187.64Z"/><path class="cls-12" d="M1039.38,158.09a9.59,9.59,0,0,0-3.65.38l-15.57,4.7-14.83-4.48a13.89,13.89,0,0,0-5.17-.53l-75.93,6.74,75.93,6.74a13.7,13.7,0,0,0,5.17-.54l14.83-4.48,15.57,4.71a9.86,9.86,0,0,0,3.66.38l76.7-6.81Z"/><path class="cls-12" d="M1020.16,178.89c-50,0-101.65-5.23-101.65-14s51.69-14,101.65-14,101.65,5.24,101.65,14S1070.12,178.89,1020.16,178.89Zm0-27.13c-60.29,0-100.79,6.8-100.79,13.14S959.87,178,1020.16,178,1121,171.24,1121,164.9,1080.45,151.76,1020.16,151.76Z"/><rect class="cls-10" x="1152.83" y="216.89" width="3.79" height="14.99"/><path class="cls-12" d="M1161.1,212.93a1.92,1.92,0,0,0-1.21.22l-5.17,2.74-4.93-2.61a2.68,2.68,0,0,0-1.71-.31l-25.23,3.92,25.23,3.92a2.68,2.68,0,0,0,1.71-.31l4.93-2.61,5.17,2.74a1.89,1.89,0,0,0,1.22.22l25.48-4Z"/><path class="cls-12" d="M1154.72,225c-16.6,0-33.77-3-33.77-8.14s17.17-8.14,33.77-8.14,33.77,3,33.77,8.14S1171.32,225,1154.72,225Zm0-15.78c-20,0-33.48,3.95-33.48,7.64s13.45,7.64,33.48,7.64,33.48-3.95,33.48-7.64S1174.75,209.25,1154.72,209.25Z"/><path class="cls-12" d="M1063.69,229h92.54a2.59,2.59,0,0,1,1.24,4.87l-96.3,52.2Z"/><path class="cls-10" d="M1074.25,233v34.25A31.75,31.75,0,0,1,1042.49,299h-50.6a31.71,31.71,0,0,1-25.56-12.91,31.8,31.8,0,0,1-6.2-18.82V233a31.76,31.76,0,0,1,31.76-31.73h50.6A31.75,31.75,0,0,1,1074.25,233Z"/><path class="cls-12" d="M1036.91,219.28v55.14a11.69,11.69,0,0,1-11.69,11.69H966.33a31.8,31.8,0,0,1-6.2-18.82V233a31.71,31.71,0,0,1,12.8-25.45h52.29A11.69,11.69,0,0,1,1036.91,219.28Z"/><path class="cls-14" d="M1030.11,219.28v43.45a11.68,11.68,0,0,1-11.68,11.69H961a31.18,31.18,0,0,1-.82-7.13V233a31.71,31.71,0,0,1,12.8-25.45h45.5A11.69,11.69,0,0,1,1030.11,219.28Z"/><polygon class="cls-2" points="1002.24 207.59 975.74 274.42 968.49 274.42 994.99 207.59 1002.24 207.59"/><polygon class="cls-2" points="1013.08 207.59 986.6 274.42 985.04 274.42 1011.54 207.59 1013.08 207.59"/><path class="cls-14" d="M1046.66,271.89v-7.36a2.61,2.61,0,0,0,1.39-2.27,2.65,2.65,0,0,0-5.29,0,2.6,2.6,0,0,0,1.38,2.27v7.36a2.62,2.62,0,0,0-1.38,2.28,2.65,2.65,0,1,0,3.9-2.28Z"/><path class="cls-14" d="M1058.63,319.14H975.75a28.94,28.94,0,0,1-26.12-16.68,2.13,2.13,0,1,1,3.87-1.8,24.65,24.65,0,0,0,22.25,14.21h82.88a24.65,24.65,0,0,0,22.25-14.21,2.13,2.13,0,1,1,3.87,1.8A28.94,28.94,0,0,1,1058.63,319.14Z"/><path class="cls-19" d="M1257.66,592.94c-.07.23-.8,2.71.74,2.82,0,0,0,.2,1.36-.09a2.72,2.72,0,0,0,3.13,1.12l7.6-1.19c2.08-.7,7-1.92,9.41-6.82,0,0,35.31-11.43,38.9-15.68s8-26.14,8-26.14L1313.49,541s-2.24,19.85-6.74,23.36-29,17.78-29,17.78-5.38-3.06-7.31-2.83c-.83.11-6.31.74-6.21,2.34.07,1.11,2.16,1.53,3.54,1.46a17.54,17.54,0,0,1,2.58-.15c.16.09,0,.28-.32.52-1.24.92-5.29,2.72-7.69,4.05-3,1.7-5.33,3.53-5.54,4.12A.86.86,0,0,0,1257.66,592.94Z"/><path class="cls-20" d="M1353.05,780.28a7.8,7.8,0,0,0,.38,3.42c.46,1,14.64,3.74,28.1,1.31a2.35,2.35,0,0,0,1.88-2.48l-.11-1.53Z"/><path class="cls-9" d="M1353.1,780c.87-2.55,14.38-4.44,19.1-4.71,5.33-.31.4-3.58,4.74-3.1l4.34.51a17.41,17.41,0,0,1,2,7.39c0,.29,0,.58,0,.89,0,3.08-9.06,2.78-17.42,2.69-5.57-.06-10-.28-12.45-2.68A.91.91,0,0,1,1353.1,780Z"/><path class="cls-21" d="M1382.38,761l0,14.28s-13.67,2.7-10.59.1l-1-13.16Z"/><path class="cls-20" d="M1307.33,780.37a7.8,7.8,0,0,0,.07,3.44c.36,1.09,14.24,5.07,27.85,3.9a2.34,2.34,0,0,0,2.1-2.3l0-1.53Z"/><path class="cls-9" d="M1307.4,780.11c1.1-2.46,14.74-3.08,19.47-2.93,5.32.2.72-3.52,5-2.64l4.28.91a17.33,17.33,0,0,1,1.3,7.54c0,.29,0,.58,0,.89-.29,3.07-9.28,1.93-17.6,1.07-5.54-.57-10-1.2-12.15-3.81A1,1,0,0,1,1307.4,780.11Z"/><path class="cls-2" d="M1253.11,643.33l-61,.12A10.49,10.49,0,0,1,1181.58,633l-.11-52.37A10.5,10.5,0,0,1,1192,570.09l61-.12a10.48,10.48,0,0,1,10.51,10.47l.11,52.37A10.51,10.51,0,0,1,1253.11,643.33Z"/><path class="cls-10" d="M1242.93,600.05a20.42,20.42,0,1,0-20.37,20.46A20.41,20.41,0,0,0,1242.93,600.05Z"/><path class="cls-2" d="M1235.11,599.5l-17.89-10.28a.65.65,0,0,0-1,.57l0,20.63a.66.66,0,0,0,1,.57l17.85-10.35A.66.66,0,0,0,1235.11,599.5Z"/><path class="cls-4" d="M1257.25,631.08a3,3,0,0,1-3,3l-63.4.13a3,3,0,0,1,0-5.94l63.4-.13A3,3,0,0,1,1257.25,631.08Z"/><path class="cls-10" d="M1219.89,628.18v5.94l-29,.06a3,3,0,0,1,0-5.94Z"/><path class="cls-21" d="M1338.32,763.84,1337,778.05s-13.87,1.44-10.56-.88l.24-13.19Z"/><path class="cls-14" d="M1329.81,603.19S1376,586,1397,605.72c4.06,28.14-10.67,79.66-11,102.42-.29,18.44-.45,36-1.47,60.69l-14.83-.38a517.83,517.83,0,0,1-7.33-58.73,401.62,401.62,0,0,1,1-61.49l-4,.19s-10.19,37.35-12.79,57.47c-2.48,19.13-4.73,41.42-5.92,62.94l-16.83-.66s-3-41.8-2.84-63.18C1321.2,676.38,1326.62,621.4,1329.81,603.19Z"/><path class="cls-22" d="M1220.15,603.63c-.12.2-1.5,2.39-.05,2.92,0,0-.07.18,1.33.28a2.69,2.69,0,0,0,2.7,1.93l7.64.94c2.19-.11,7.27.07,10.92-4,0,0,37.08-1.33,41.7-4.43s14.9-22.93,14.9-22.93L1288.05,569s-7.58,18.48-12.87,20.63-32.79,9.15-32.79,9.15-4.34-4.42-6.26-4.73c-.82-.12-7,.22-7.3,1.78-.23,1.09,1.06,1.46,2.82,1.4a21.3,21.3,0,0,1,3.39.31c.13.13,0,.28-.45.41-1.44.55-5.83,1.17-8.51,1.8-3.38.79-6.09,1.93-6.45,2.44A.86.86,0,0,0,1220.15,603.63Z"/><path class="cls-10" d="M1298.74,587.69c-4.3-8.84-18-17.06-18-17.06,7.28-8.57,6.61-41.26,30.7-54.93,3.43-2,14.22-8.54,23.25-3.74,48.57,25.79,66.79,101.51,66.79,101.51-29.23,12.62-76.65,5.89-76.65,5.89-.7-9.42-4.62-32.24-18.1-55C1305.13,574.88,1298.74,587.69,1298.74,587.69Z"/><path class="cls-22" d="M1281.91,489.11s1.41,6.46,2.38,9.24-1.32,4.71-1.14,5.63,2.69,1.79,2.69,1.79.83,9.07,4.21,10.26,10.42-2.85,10.42-2.85l5,8.69s11.69-.26,17.36-11.4l-4.7-8.22s-1.83-18.06-12.54-23.35S1281.91,489.11,1281.91,489.11Z"/><path class="cls-23" d="M1273.18,487.5c-3.24-3.35-3-6.61,1.44-8.06,8.75-2.87,9.57-12.2,24.13-13.26a23.8,23.8,0,0,1,8.17.85,24.58,24.58,0,0,0-1.76-2.58,9.27,9.27,0,0,1,3.9,3.22c1.42-.48,4.92-1.52,6.19-.43a9,9,0,0,0-3.83,1.54c9.32,4.68,15.91,15.18,11.95,28.79-2.35,8.08-12.61,8.12-17.93,4.82,0,0,5.08-2.32,3.5-5.93-1.23-2.82-4.4-3.46-5.56-1.15-1.77,3.51-1.19,3.7-2.38,4.18,0,0-1.57-5.45-4.59-8.91,0,0-13.48,5.12-19.8.43a16,16,0,0,0,3.42-.2A9.84,9.84,0,0,1,1273.18,487.5Z"/><path class="cls-23" d="M1389.26,621.14s-12,2-18.56,0v11.65l9.28,5.4,7.6-3.21S1390.44,624.68,1389.26,621.14Z"/><path class="cls-23" d="M1353.13,623.83s-12,1.09-18.56-.93l-.76,13.34,9,5.57,8.69-4.14S1354.31,627.37,1353.13,623.83Z"/><path class="cls-24" d="M1044.06,672.94c.22-4.23,3.59-6.1,7.17-7.06-2.51-12.45-9.18-23.48-16.21-26.61-2.81-1.25-6.4-2.59-10.44-4-1.55,3.46-5.35,5.91-9.09,3.5-2.34-1.5-2.64-4.37-1.88-7-19.21-5.85-41.36-11.27-41.36-11.27s4.23,9.42,7.76,29.26c1.77.13,3.45.85,3.73,2.79s-1.06,3.07-2.65,3.73q.64,4.31,1.22,9.17c3.7-1.48,8.61,1.06,9.08,5.37s-4,6.77-7.83,7.38c0,.33.05.64.08,1,3,40.05,42.54,29.84,42.54,29.84,17.92-3.75,25.07-16.26,26-29.74C1048.12,679.66,1043.81,677.76,1044.06,672.94Zm-18.46-28a1.71,1.71,0,0,1-1.26,0,1.58,1.58,0,0,1-.36-.26,1.17,1.17,0,0,1-.65-1.23,1.05,1.05,0,0,1,.35-.62,1.85,1.85,0,0,1,.76-.65,1.18,1.18,0,0,1,1.32.41h0l0,.06a.8.8,0,0,1,.15.17,3.92,3.92,0,0,1,.31.69A1.16,1.16,0,0,1,1025.6,644.9Z"/><path class="cls-8" d="M1031.35,693.16s0-.11,0-.16a1.21,1.21,0,0,0-.1-.14c-1.58-3.31-3.24-6.53-5-9.62,5.69-7.43,5.63-20.24,5.63-20.79a1.74,1.74,0,1,0-3.47,0c0,.11,0,10.73-4.05,17.39-2.56-4.45-5.16-8.61-7.66-12.36-.44-.66-.88-1.32-1.32-2,2.26-9.61-2.22-19-2.42-19.46a1.73,1.73,0,0,0-3.12,1.51,31.56,31.56,0,0,1,2.66,13.78,265,265,0,0,0-20.81-26,1.74,1.74,0,1,0-2.52,2.39A266.59,266.59,0,0,1,1015,671.34c-6.17.33-14.48-4.56-17.49-6.75a1.74,1.74,0,0,0-2,2.81c.53.38,12.53,9,21.58,7.16a201.11,201.11,0,0,1,10.26,18.23c-9.6,3-21-4.41-21.21-4.53a1.74,1.74,0,0,0-1.91,2.9,41.27,41.27,0,0,0,8.59,4.08c6,2,11.45,2.26,16,.7,5.9,12.69,10.19,26.19,10.58,39.16a1.74,1.74,0,0,0,1.78,1.68,1.68,1.68,0,0,0,.55-.11,1.71,1.71,0,0,0,1.13-1.68C1042.45,720.9,1037.6,706.31,1031.35,693.16Z"/><path class="cls-15" d="M1050.7,709.79s38.11,9.2,39.77-22.27c1.93-36.48,1.46-50.83,6-60.28,0,0-46,6.62-56.82,25.77C1024.38,679.89,1035.79,708.67,1050.7,709.79Z"/><path class="cls-8" d="M1075.7,669.5a1.41,1.41,0,0,0-2,.13c-2,2.29-7.73,7.7-12.7,8.55a218,218,0,0,1,14.48-31.4,1.43,1.43,0,0,0-.5-1.94,1.41,1.41,0,0,0-1.94.5,213.24,213.24,0,0,0-11.86,24.47,25.38,25.38,0,0,1-.38-11.46,1.42,1.42,0,0,0-2.77-.64c-.08.36-1.93,8.7,1.61,15.95-.23.59-.46,1.18-.69,1.79-1.31,3.44-2.62,7.23-3.85,11.24-4.48-4.55-6.37-13-6.39-13.12a1.42,1.42,0,1,0-2.77.6c.1.44,2.38,10.66,8.26,15.54-.79,2.76-1.52,5.61-2.18,8.51a1.34,1.34,0,0,0-.07.18c0,.05,0,.11,0,.16-2.57,11.61-3.79,24.09-1.56,35.38a1.42,1.42,0,0,0,1.21,1.14,1.7,1.7,0,0,0,.45,0,1.42,1.42,0,0,0,1.12-1.67c-2.05-10.39-1.09-21.93,1.31-33.1,3.93.41,8.26-.77,12.64-3.47a33.44,33.44,0,0,0,6.1-4.82,1.42,1.42,0,0,0-2-2c-.12.13-7.88,8.09-16.07,7.46a164.72,164.72,0,0,1,4.85-16.38c7.54-.19,15.54-9.22,15.89-9.63A1.4,1.4,0,0,0,1075.7,669.5Z"/><path class="cls-14" d="M1066.88,782.2h-35.8c-2.94,0-5.44-2.48-5.94-5.87l-7.36-50.2h62.4l-7.37,50.2C1072.31,779.72,1069.81,782.2,1066.88,782.2Z"/><path class="cls-6" d="M1079.85,735H1018.1c-3.2,0-5.79-4-5.79-8.88h0c0-4.91,2.59-8.89,5.79-8.89h61.75c3.2,0,5.8,4,5.8,8.89h0C1085.65,731,1083.05,735,1079.85,735Z"/><rect class="cls-1" y="0.17" width="1641.6" height="1026"/></g></g></svg>